<svg xmlns="http://www.w3.org/2000/svg">
    <symbol id="dashboard" viewBox="0 0 1920 1920">
        <g>
            <path d="M833.935 1063.327c28.913 170.315 64.038 348.198 83.464 384.79 27.557 51.84 92.047 71.944 144 44.387 51.84-27.558 71.717-92.273 44.16-144.113-19.426-36.593-146.937-165.46-271.624-285.064Zm-43.821-196.405c61.553 56.923 370.899 344.81 415.285 428.612 56.696 106.842 15.811 239.887-91.144 296.697-32.64 17.28-67.765 25.411-102.325 25.411-78.72 0-154.955-42.353-194.371-116.555-44.386-83.802-109.102-501.346-121.638-584.245-3.501-23.717 8.245-47.21 29.365-58.277 21.346-11.294 47.096-8.02 64.828 8.357ZM960.045 281.99c529.355 0 960 430.757 960 960 0 77.139-8.922 153.148-26.654 225.882l-10.39 43.144h-524.386v-112.942h434.258c9.487-50.71 14.231-103.115 14.231-156.084 0-467.125-380.047-847.06-847.059-847.06-467.125 0-847.059 379.935-847.059 847.06 0 52.97 4.744 105.374 14.118 156.084h487.454v112.942H36.977l-10.39-43.144C8.966 1395.137.044 1319.128.044 1241.99c0-529.243 430.645-960 960-960Zm542.547 390.686 79.85 79.85-112.716 112.715-79.85-79.85 112.716-112.715Zm-1085.184 0L530.123 785.39l-79.85 79.85L337.56 752.524l79.849-79.85Zm599.063-201.363v159.473H903.529V471.312h112.942Z" fill-rule="evenodd"/>
        </g>
    </symbol>

    <symbol id="news" viewBox="0 0 32 32">
        <g>
            <path d="M25,3V1H3v28   c0,1.105,0.895,2,2,2h22c1.105,0,2-0.895,2-2V3H25z" fill="none" stroke-linejoin="round" stroke-miterlimit="10" stroke-width="2"/>
            <rect fill="none" height="6" stroke-linejoin="round" stroke-miterlimit="10" stroke-width="2" width="14" x="7" y="5"/>
            <line fill="none" stroke-linejoin="round" stroke-miterlimit="10" stroke-width="2" x1="25" x2="25" y1="3" y2="24"/>
            <line fill="none" stroke-linejoin="round" stroke-miterlimit="10" stroke-width="2" x1="25" x2="25" y1="26" y2="28"/>
            <line fill="none" stroke-linejoin="round" stroke-miterlimit="10" stroke-width="2" x1="6" x2="22" y1="15" y2="15"/>
            <line fill="none" stroke-linejoin="round" stroke-miterlimit="10" stroke-width="2" x1="6" x2="22" y1="19" y2="19"/>
            <line fill="none" stroke-linejoin="round" stroke-miterlimit="10" stroke-width="2" x1="6" x2="18" y1="23" y2="23"/>
        </g>
    </symbol>

    <symbol viewBox="0 0 261.258 261.259" id="vacancy">
        <g>
            <path d="M50.591,141.681c-0.348-0.485-0.917-0.761-1.559-0.761h-5.131c-1.057,0-2.075,0.761-2.371,1.778l-5.691,19.723
                l-5.64-19.714c-0.292-1.017-1.305-1.787-2.364-1.787H22.5c-0.639,0-1.208,0.28-1.559,0.761c-0.348,0.485-0.425,1.115-0.219,1.718
                l10.361,30.644c0.336,0.976,1.363,1.708,2.395,1.708h4.492c1.034,0,2.065-0.732,2.394-1.708l10.447-30.64
                C51.016,142.801,50.941,142.171,50.591,141.681z"/>
            <path d="M69.101,142.614c-0.348-0.98-1.358-1.689-2.399-1.689h-5.759c-1.045,0-2.056,0.709-2.403,1.689l-10.94,30.648
                c-0.214,0.611-0.142,1.246,0.201,1.727c0.345,0.49,0.912,0.771,1.559,0.771h5.181c1.036,0,2.065-0.742,2.389-1.727l1.72-4.942
                l10.15,0.079l1.559,4.854c0.315,0.994,1.342,1.736,2.39,1.736h5.437c0.646,0,1.213-0.28,1.563-0.766
                c0.343-0.494,0.416-1.115,0.201-1.722L69.101,142.614z M66.209,161.109h-5.022l2.546-7.715L66.209,161.109z"/>
            <path d="M96.599,148.485c2.023,0,3.484,0.551,4.459,1.689c0.438,0.514,0.826,1.26,1.157,2.23c0.343,0.989,1.342,1.713,2.369,1.713
                h4.87c0.618,0,1.195-0.266,1.587-0.714c0.378-0.443,0.546-1.026,0.459-1.605c-0.282-1.886-1.062-3.771-2.327-5.609
                c-2.726-3.902-7.04-5.881-12.832-5.881c-4.354,0-7.997,1.47-10.83,4.359c-3.215,3.29-4.852,7.98-4.852,13.936
                c0,5.517,1.436,9.95,4.264,13.161c2.868,3.258,6.83,4.9,11.784,4.9c4.025,0,7.391-1.228,9.995-3.645
                c2.345-2.18,3.904-4.976,4.63-8.312c0.13-0.598-0.004-1.199-0.378-1.657c-0.376-0.471-0.945-0.732-1.566-0.732h-4.828
                c-1.036,0-2.03,0.732-2.361,1.741c-0.348,1.078-0.754,1.908-1.214,2.487c-0.989,1.265-2.422,1.876-4.377,1.876
                c-1.907,0-3.44-0.747-4.684-2.286c-1.286-1.578-1.939-4.08-1.939-7.421c0-3.375,0.63-5.983,1.874-7.757
                C93.029,149.293,94.578,148.485,96.599,148.485z"/>
            <path d="M134.22,142.614c-0.348-0.98-1.358-1.689-2.399-1.689h-5.764c-1.027,0-2.061,0.728-2.399,1.689l-10.944,30.648
                c-0.215,0.611-0.142,1.246,0.201,1.727c0.345,0.49,0.913,0.771,1.559,0.771h5.18c1.036,0,2.065-0.742,2.39-1.727l1.72-4.942
                l10.151,0.079l1.559,4.854c0.315,0.994,1.341,1.736,2.389,1.736h5.444c0.644,0,1.204-0.28,1.559-0.761
                c0.341-0.49,0.42-1.115,0.206-1.727L134.22,142.614z M126.312,161.109l2.546-7.715l2.476,7.715H126.312z"/>
            <path d="M173.634,140.92h-4.406c-1.186,0-2.151,0.966-2.151,2.151v17.156l-10.175-17.875c-0.48-0.831-1.507-1.433-2.469-1.433
                h-5.189c-1.186,0-2.156,0.966-2.156,2.151v30.537c0,1.186,0.971,2.151,2.156,2.151h4.406c1.185,0,2.146-0.966,2.146-2.151v-17.591
                l10.506,18.314c0.48,0.83,1.517,1.428,2.469,1.428h4.872c1.186,0,2.151-0.966,2.151-2.151v-30.537
                C175.781,141.886,174.819,140.92,173.634,140.92z"/>
            <path d="M194.281,148.485c2.025,0,3.486,0.551,4.462,1.689c0.438,0.514,0.826,1.26,1.157,2.23
                c0.346,0.989,1.345,1.713,2.371,1.713h4.868c0.611,0,1.189-0.266,1.582-0.714c0.383-0.438,0.551-1.018,0.467-1.605
                c-0.285-1.881-1.064-3.762-2.329-5.609c-2.726-3.902-7.043-5.881-12.83-5.881c-4.359,0-7.999,1.47-10.832,4.359
                c-3.216,3.29-4.85,7.98-4.85,13.936c0,5.517,1.434,9.95,4.262,13.161c2.87,3.258,6.828,4.9,11.784,4.9
                c4.022,0,7.393-1.228,9.997-3.645c2.343-2.18,3.901-4.976,4.63-8.312c0.13-0.598-0.01-1.199-0.378-1.657
                c-0.379-0.471-0.948-0.732-1.568-0.732h-4.831c-1.036,0-2.025,0.732-2.356,1.741c-0.35,1.078-0.756,1.908-1.218,2.487
                c-0.99,1.26-2.418,1.876-4.378,1.876c-1.904,0-3.436-0.747-4.682-2.286c-1.283-1.578-1.937-4.08-1.937-7.421
                c0-3.375,0.626-5.983,1.872-7.757C190.715,149.293,192.265,148.485,194.281,148.485z"/>
            <path d="M230.544,142.483l-4.994,10.939l-5.218-10.958c-0.43-0.9-1.456-1.545-2.45-1.545h-6.081c-0.687,0-1.251,0.299-1.568,0.831
                c-0.317,0.527-0.299,1.176,0.028,1.778l10.305,18.611c0.158,0.29,0.312,0.892,0.312,1.214v10.259c0,1.185,0.967,2.151,2.151,2.151
                h4.873c1.186,0,2.146-0.967,2.146-2.151v-10.259c0-0.326,0.154-0.934,0.312-1.232l9.95-18.598c0.322-0.603,0.322-1.256,0.01-1.778
                s-0.892-0.826-1.568-0.826h-5.773C231.982,140.92,230.959,141.578,230.544,142.483z"/>
            <path d="M28.803,100.125h-7.297C9.649,100.125,0,109.774,0,121.631v73.702c0,11.854,9.649,21.507,21.506,21.507h218.247
                c11.858,0,21.506-9.652,21.506-21.507v-73.702c0-11.856-9.647-21.506-21.506-21.506h-7.295V44.419h-14.337l0,0v55.706H43.14
                V44.419l0,0H28.803V100.125z M246.917,121.631v73.702c0,3.953-3.216,7.169-7.169,7.169H21.506c-3.953,0-7.169-3.216-7.169-7.169
                v-73.702c0-3.953,3.216-7.168,7.169-7.168h7.297h203.646h7.299C243.706,114.462,246.917,117.678,246.917,121.631z"/>
	    </g>
    </symbol>

    <symbol viewBox="0 0 50 50" id="services">
        <g>
            <path d="M4.8125 4C4.609375 4.035156 4.425781 4.136719 4.28125 4.28125L3.28125 5.28125C2.917969 5.644531 2.890625 6.226563 3.21875 6.625L4 7.5625L4 19C4 19.550781 4.449219 20 5 20C5.566406 20 6 20.433594 6 21C6 21.566406 5.566406 22 5 22C4.433594 22 4 21.566406 4 21L2 21C2 22.644531 3.355469 24 5 24C6.644531 24 8 22.644531 8 21C8 19.742188 7.109375 18.847656 6 18.40625L6 10L17 23.375L17 28L0 28L0 35C0 36.644531 1.355469 38 3 38L7.09375 38C7.570313 40.835938 10.035156 43 13 43C15.964844 43 18.429688 40.835938 18.90625 38L33.09375 38C33.570313 40.835938 36.035156 43 39 43C41.964844 43 44.429688 40.835938 44.90625 38L47 38C48.644531 38 50 36.644531 50 35L50 25.375C50 23.085938 48.40625 21.0625 48.40625 21.0625L48.375 21.0625L44.25 15.5625L44.25 15.53125L44.21875 15.5C43.296875 14.386719 41.914063 13 40 13L32 13C30.355469 13 29 14.355469 29 16L29 28L27 28L27 23C27 22.710938 26.875 22.4375 26.65625 22.25L5.65625 4.25C5.453125 4.066406 5.179688 3.976563 4.90625 4C4.875 4 4.84375 4 4.8125 4 Z M 6.875 7.9375L25 23.46875L25 28L19 28L19 23C19 22.773438 18.921875 22.550781 18.78125 22.375 Z M 32 15L40 15C40.785156 15 41.894531 15.84375 42.65625 16.75C42.664063 16.761719 42.679688 16.769531 42.6875 16.78125L42.84375 17L38 17C36.40625 17 35 18.289063 35 20L35 24C35 24.832031 35.375 25.5625 35.90625 26.09375C36.4375 26.625 37.167969 27 38 27L48 27L48 35C48 35.554688 47.554688 36 47 36L44.90625 36C44.429688 33.164063 41.964844 31 39 31C36.035156 31 33.570313 33.164063 33.09375 36L31 36L31 16C31 15.445313 31.445313 15 32 15 Z M 38 19L44.34375 19L46.78125 22.25C46.78125 22.25 47.6875 23.800781 47.875 25L38 25C37.832031 25 37.5625 24.875 37.34375 24.65625C37.125 24.4375 37 24.167969 37 24L37 20C37 19.496094 37.59375 19 38 19 Z M 2 30L29 30L29 36L18.90625 36C18.429688 33.164063 15.964844 31 13 31C10.035156 31 7.570313 33.164063 7.09375 36L3 36C2.449219 36 2 35.550781 2 35 Z M 13 33C15.222656 33 17 34.777344 17 37C17 39.222656 15.222656 41 13 41C10.777344 41 9 39.222656 9 37C9 34.777344 10.777344 33 13 33 Z M 39 33C41.222656 33 43 34.777344 43 37C43 39.222656 41.222656 41 39 41C36.777344 41 35 39.222656 35 37C35 34.777344 36.777344 33 39 33Z"/>
        </g>
    </symbol>

    <symbol viewBox="0 0 24 24" id="metall">
        <g>
            <path class="cls-1" fill="none" d="M7.23,6.25h9.54a2.86,2.86,0,0,1,2.87,2.86A2.81,2.81,0,0,1,18.9,11H10.09"/>
            <path class="cls-1" fill="none" d="M10.09,12h9.55a2.87,2.87,0,0,1,0,5.73H10.09"/>
            <circle class="cls-1" fill="none" cx="10.09" cy="14.89" r="2.86"/>
            <circle class="cls-1" fill="none" cx="4.36" cy="14.89" r="2.86"/>
            <circle class="cls-1" fill="none" cx="7.23" cy="9.11" r="2.86"/>
        </g>
    </symbol>

    <symbol viewBox="0 0 512 512" id="branch">
        <g>
            <path d="M80,352c4.418,0,8-3.582,8-8v-48c0-13.233,10.767-24,24-24h136v72c0,4.418,3.582,8,8,8s8-3.582,8-8v-72h136
		        c13.233,0,24,10.767,24,24v48c0,4.418,3.582,8,8,8s8-3.582,8-8v-48c0-22.056-17.944-40-40-40H264v-24c0-4.418-3.582-8-8-8
		        s-8,3.582-8,8v24H112c-22.056,0-40,17.944-40,40v48C72,348.418,75.582,352,80,352z"/>
	        <path d="M144,208h224c4.418,0,8-3.582,8-8s-3.582-8-8-8h-8V32c0-4.418-3.582-8-8-8H160c-4.418,0-8,3.582-8,8v160h-8
		        c-4.418,0-8,3.582-8,8S139.582,208,144,208z M168,40h176v152H168V40z"/>
            <path d="M224,120c-4.418,0-8,3.582-8,8v8c0,4.418,3.582,8,8,8s8-3.582,8-8v-8C232,123.582,228.418,120,224,120z"/>
            <path d="M256,120c-4.418,0-8,3.582-8,8v8c0,4.418,3.582,8,8,8s8-3.582,8-8v-8C264,123.582,260.418,120,256,120z"/>
            <path d="M288,120c-4.418,0-8,3.582-8,8v8c0,4.418,3.582,8,8,8s8-3.582,8-8v-8C296,123.582,292.418,120,288,120z"/>
            <path d="M320,120c-4.418,0-8,3.582-8,8v8c0,4.418,3.582,8,8,8s8-3.582,8-8v-8C328,123.582,324.418,120,320,120z"/>
            <path d="M192,120c-4.418,0-8,3.582-8,8v8c0,4.418,3.582,8,8,8s8-3.582,8-8v-8C200,123.582,196.418,120,192,120z"/>
            <path d="M224,152c-4.418,0-8,3.582-8,8v8c0,4.418,3.582,8,8,8s8-3.582,8-8v-8C232,155.582,228.418,152,224,152z"/>
            <path d="M256,152c-4.418,0-8,3.582-8,8v8c0,4.418,3.582,8,8,8s8-3.582,8-8v-8C264,155.582,260.418,152,256,152z"/>
            <path d="M288,152c-4.418,0-8,3.582-8,8v8c0,4.418,3.582,8,8,8s8-3.582,8-8v-8C296,155.582,292.418,152,288,152z"/>
            <path d="M320,152c-4.418,0-8,3.582-8,8v8c0,4.418,3.582,8,8,8s8-3.582,8-8v-8C328,155.582,324.418,152,320,152z"/>
            <path d="M192,152c-4.418,0-8,3.582-8,8v8c0,4.418,3.582,8,8,8s8-3.582,8-8v-8C200,155.582,196.418,152,192,152z"/>
            <path d="M328,472v-96c0-4.418-3.582-8-8-8H192c-4.418,0-8,3.582-8,8v96c-4.418,0-8,3.582-8,8s3.582,8,8,8h144c4.418,0,8-3.582,8-8
                S332.418,472,328,472z M200,384h112v88H200V384z"/>
            <path d="M224,400c-4.418,0-8,3.582-8,8v8c0,4.418,3.582,8,8,8s8-3.582,8-8v-8C232,403.582,228.418,400,224,400z"/>
            <path d="M256,400c-4.418,0-8,3.582-8,8v8c0,4.418,3.582,8,8,8s8-3.582,8-8v-8C264,403.582,260.418,400,256,400z"/>
            <path d="M288,400c-4.418,0-8,3.582-8,8v8c0,4.418,3.582,8,8,8s8-3.582,8-8v-8C296,403.582,292.418,400,288,400z"/>
            <path d="M224,432c-4.418,0-8,3.582-8,8v8c0,4.418,3.582,8,8,8s8-3.582,8-8v-8C232,435.582,228.418,432,224,432z"/>
            <path d="M256,432c-4.418,0-8,3.582-8,8v8c0,4.418,3.582,8,8,8s8-3.582,8-8v-8C264,435.582,260.418,432,256,432z"/>
            <path d="M288,432c-4.418,0-8,3.582-8,8v8c0,4.418,3.582,8,8,8s8-3.582,8-8v-8C296,435.582,292.418,432,288,432z"/>
            <path d="M224,88c-4.418,0-8,3.582-8,8v8c0,4.418,3.582,8,8,8s8-3.582,8-8v-8C232,91.582,228.418,88,224,88z"/>
            <path d="M256,88c-4.418,0-8,3.582-8,8v8c0,4.418,3.582,8,8,8s8-3.582,8-8v-8C264,91.582,260.418,88,256,88z"/>
            <path d="M288,88c-4.418,0-8,3.582-8,8v8c0,4.418,3.582,8,8,8s8-3.582,8-8v-8C296,91.582,292.418,88,288,88z"/>
            <path d="M320,88c-4.418,0-8,3.582-8,8v8c0,4.418,3.582,8,8,8s8-3.582,8-8v-8C328,91.582,324.418,88,320,88z"/>
            <path d="M192,88c-4.418,0-8,3.582-8,8v8c0,4.418,3.582,8,8,8s8-3.582,8-8v-8C200,91.582,196.418,88,192,88z"/>
            <path d="M224,56c-4.418,0-8,3.582-8,8v8c0,4.418,3.582,8,8,8s8-3.582,8-8v-8C232,59.582,228.418,56,224,56z"/>
            <path d="M256,56c-4.418,0-8,3.582-8,8v8c0,4.418,3.582,8,8,8s8-3.582,8-8v-8C264,59.582,260.418,56,256,56z"/>
            <path d="M288,56c-4.418,0-8,3.582-8,8v8c0,4.418,3.582,8,8,8s8-3.582,8-8v-8C296,59.582,292.418,56,288,56z"/>
            <path d="M320,56c-4.418,0-8,3.582-8,8v8c0,4.418,3.582,8,8,8s8-3.582,8-8v-8C328,59.582,324.418,56,320,56z"/>
            <path d="M192,56c-4.418,0-8,3.582-8,8v8c0,4.418,3.582,8,8,8s8-3.582,8-8v-8C200,59.582,196.418,56,192,56z"/>
            <path d="M152,472v-96c0-4.418-3.582-8-8-8H16c-4.418,0-8,3.582-8,8v96c-4.418,0-8,3.582-8,8s3.582,8,8,8h144c4.418,0,8-3.582,8-8
                S156.418,472,152,472z M24,384h112v88H24V384z"/>
            <path d="M48,400c-4.418,0-8,3.582-8,8v8c0,4.418,3.582,8,8,8s8-3.582,8-8v-8C56,403.582,52.418,400,48,400z"/>
            <path d="M80,400c-4.418,0-8,3.582-8,8v8c0,4.418,3.582,8,8,8s8-3.582,8-8v-8C88,403.582,84.418,400,80,400z"/>
            <path d="M112,400c-4.418,0-8,3.582-8,8v8c0,4.418,3.582,8,8,8s8-3.582,8-8v-8C120,403.582,116.418,400,112,400z"/>
            <path d="M48,432c-4.418,0-8,3.582-8,8v8c0,4.418,3.582,8,8,8s8-3.582,8-8v-8C56,435.582,52.418,432,48,432z"/>
            <path d="M80,432c-4.418,0-8,3.582-8,8v8c0,4.418,3.582,8,8,8s8-3.582,8-8v-8C88,435.582,84.418,432,80,432z"/>
            <path d="M112,432c-4.418,0-8,3.582-8,8v8c0,4.418,3.582,8,8,8s8-3.582,8-8v-8C120,435.582,116.418,432,112,432z"/>
            <path d="M504,472v-96c0-4.418-3.582-8-8-8H368c-4.418,0-8,3.582-8,8v96c-4.418,0-8,3.582-8,8s3.582,8,8,8h144c4.418,0,8-3.582,8-8
                S508.418,472,504,472z M376,384h112v88H376V384z"/>
            <path d="M400,400c-4.418,0-8,3.582-8,8v8c0,4.418,3.582,8,8,8s8-3.582,8-8v-8C408,403.582,404.418,400,400,400z"/>
            <path d="M432,400c-4.418,0-8,3.582-8,8v8c0,4.418,3.582,8,8,8s8-3.582,8-8v-8C440,403.582,436.418,400,432,400z"/>
            <path d="M464,400c-4.418,0-8,3.582-8,8v8c0,4.418,3.582,8,8,8s8-3.582,8-8v-8C472,403.582,468.418,400,464,400z"/>
            <path d="M400,432c-4.418,0-8,3.582-8,8v8c0,4.418,3.582,8,8,8s8-3.582,8-8v-8C408,435.582,404.418,432,400,432z"/>
            <path d="M432,432c-4.418,0-8,3.582-8,8v8c0,4.418,3.582,8,8,8s8-3.582,8-8v-8C440,435.582,436.418,432,432,432z"/>
            <path d="M464,432c-4.418,0-8,3.582-8,8v8c0,4.418,3.582,8,8,8s8-3.582,8-8v-8C472,435.582,468.418,432,464,432z"/>
        </g>
    </symbol>

    <symbol viewBox="0 0 64 64" id="office">
        <g>
            <path d="M31.5273,34.4512h22.5313c0.5527,0,1-0.4478,1-1v-6.1519c0-0.5522-0.4473-1-1-1H31.5273c-0.5527,0-1,0.4478-1,1v6.1519     C30.5273,34.0034,30.9746,34.4512,31.5273,34.4512z M47.5479,28.2993h5.5107v4.1519h-5.5107V28.2993z M40.0381,28.2993h5.5098     v4.1519h-5.5098V28.2993z M32.5273,28.2993h5.5107v4.1519h-5.5107V28.2993z"/>
            <path d="M62,60.8833h-1.125V11.1647c1.1713-0.2427,2.0547-1.2807,2.0547-2.5216V7.3232c0-1.4204-1.1572-2.5757-2.5791-2.5757     H25.2354c-1.4209,0-2.5762,1.1553-2.5762,2.5757v1.3198c0,0.1985,0.0275,0.3899,0.0702,0.5757H11.792V5.5513     c0-0.5522-0.4473-1-1-1s-1,0.4478-1,1v3.6675H6.5361V2.1167c0-0.5522-0.4473-1-1-1s-1,0.4478-1,1v7.1021H3.2119     C1.9922,9.2188,1,10.2124,1,11.4341v2.8887c0,1.2192,0.9922,2.2114,2.2119,2.2114h0.1904v44.3491H2c-0.5527,0-1,0.4478-1,1     s0.4473,1,1,1h60c0.5527,0,1-0.4478,1-1S62.5527,60.8833,62,60.8833z M11.9395,60.8833v-9.8662h5.9795v9.8662H11.9395z      M24.7119,60.8833h-4.793V50.0171c0-0.5522-0.4473-1-1-1h-7.9795c-0.5527,0-1,0.4478-1,1v10.8662H5.4023V16.5342h19.3096V60.8833     z M4.4023,14.5342H3.2119C3.0986,14.5342,3,14.4355,3,14.3228v-2.8887c0-0.1167,0.0967-0.2153,0.2119-0.2153h21.5v3.3154H4.4023z      M41.7949,60.8833h-4.2393v-9.8662h4.2393V60.8833z M48.0313,60.8833h-4.2363v-9.8662h4.2363V60.8833z M58.875,60.8833h-8.8438     V50.0171c0-0.5522-0.4473-1-1-1H36.5557c-0.5527,0-1,0.4478-1,1v10.8662h-8.8438V11.2188H58.875V60.8833z M60.3506,9.2188H59.875     H25.7119h-0.4766c-0.3174,0-0.5762-0.2583-0.5762-0.5757V7.3232c0-0.312,0.2637-0.5757,0.5762-0.5757h35.1152     c0.3135,0,0.5791,0.2637,0.5791,0.5757v1.3198C60.9297,8.9604,60.6699,9.2188,60.3506,9.2188z"/>
            <path d="M9.8926,29.1709h10.2031c0.5527,0,1-0.4478,1-1v-6.2256c0-0.5522-0.4473-1-1-1H9.8926c-0.5527,0-1,0.4478-1,1v6.2256     C8.8926,28.7231,9.3398,29.1709,9.8926,29.1709z M15.9941,22.9453h3.1016v4.2256h-3.1016V22.9453z M10.8926,22.9453h3.1016     v4.2256h-3.1016V22.9453z"/>
            <path d="M9.8926,41.6436h10.2031c0.5527,0,1-0.4478,1-1v-6.2295c0-0.5522-0.4473-1-1-1H9.8926c-0.5527,0-1,0.4478-1,1v6.2295     C8.8926,41.1958,9.3398,41.6436,9.8926,41.6436z M15.9941,35.4141h3.1016v4.2295h-3.1016V35.4141z M10.8926,35.4141h3.1016     v4.2295h-3.1016V35.4141z"/>
            <path d="M31.5273,45.4775h22.5313c0.5527,0,1-0.4478,1-1v-6.1519c0-0.5522-0.4473-1-1-1H31.5273c-0.5527,0-1,0.4478-1,1v6.1519     C30.5273,45.0298,30.9746,45.4775,31.5273,45.4775z M47.5479,39.3257h5.5107v4.1519h-5.5107V39.3257z M40.0381,39.3257h5.5098     v4.1519h-5.5098V39.3257z M32.5273,39.3257h5.5107v4.1519h-5.5107V39.3257z"/>
            <path d="M31.5273,23.4287h22.5313c0.5527,0,1-0.4478,1-1v-6.1523c0-0.5522-0.4473-1-1-1H31.5273c-0.5527,0-1,0.4478-1,1v6.1523     C30.5273,22.981,30.9746,23.4287,31.5273,23.4287z M47.5479,17.2764h5.5107v4.1523h-5.5107V17.2764z M40.0381,17.2764h5.5098     v4.1523h-5.5098V17.2764z M32.5273,17.2764h5.5107v4.1523h-5.5107V17.2764z"/>
        </g>
    </symbol>

    <symbol viewBox="0 0 512 512" id="store">
        <g>
            <path d="M255.999,0.306L0,150.668v361.026h65.909h30.417h319.347h30.417H512V150.668L255.999,0.306z M415.674,481.277
                L415.674,481.277H96.326v-20.272h319.347V481.277z M415.674,430.587H96.326v-20.272h319.347V430.587z M415.674,379.897H96.326
                v-20.272h319.347V379.897z M415.674,329.208H96.326v-20.272h319.347V329.208z M415.674,278.518H96.326v-20.273h319.347V278.518z
                M415.674,227.828L415.674,227.828H96.326v-20.272h319.347V227.828z M446.091,481.277v-20.272v-30.417v-20.272v-30.417v-20.272
                v-30.417v-20.272v-30.417v-20.273v-30.417V177.14H65.909v50.689v30.417v20.273v30.417v20.272v30.417v20.272v30.417v20.272v30.417
                v20.272H30.417V168.078L255.999,35.582l225.582,132.496v313.198H446.091z"/>
	    </g>
    </symbol>

    <symbol viewBox="0 0 16 16" id="feedback">
        <g>
            <path d="M7.549 10.078c.46.182.88.424 1.258.725.378.3.701.65.97 1.046a4.829 4.829 0 0 1 .848 2.714V15H9.75v-.438a3.894 3.894 0 0 0-1.155-2.782 4.054 4.054 0 0 0-1.251-.84 3.898 3.898 0 0 0-1.532-.315A3.894 3.894 0 0 0 3.03 11.78a4.06 4.06 0 0 0-.84 1.251c-.206.474-.31.985-.315 1.531V15H1v-.438a4.724 4.724 0 0 1 .848-2.713 4.918 4.918 0 0 1 2.229-1.77 2.994 2.994 0 0 1-.555-.493 3.156 3.156 0 0 1-.417-.602 2.942 2.942 0 0 1-.26-.683 3.345 3.345 0 0 1-.095-.739c0-.423.08-.82.24-1.189a3.095 3.095 0 0 1 1.626-1.627 3.067 3.067 0 0 1 2.386-.007 3.095 3.095 0 0 1 1.627 1.627 3.067 3.067 0 0 1 .157 1.928c-.06.237-.148.465-.266.684a3.506 3.506 0 0 1-.417.608c-.16.187-.345.35-.554.492zM5.812 9.75c.301 0 .584-.057.848-.17a2.194 2.194 0 0 0 1.162-1.163c.119-.269.178-.554.178-.854a2.138 2.138 0 0 0-.643-1.538 2.383 2.383 0 0 0-.697-.472 2.048 2.048 0 0 0-.848-.178c-.3 0-.583.057-.847.17a2.218 2.218 0 0 0-1.17 1.17c-.113.264-.17.547-.17.848 0 .3.057.583.17.847.115.264.27.497.466.697a2.168 2.168 0 0 0 1.552.643zM15 1v7h-1.75l-2.625 2.625V8H9.75v-.875h1.75v1.388l1.388-1.388h1.237v-5.25h-8.75v1.572a7.255 7.255 0 0 0-.438.069 2.62 2.62 0 0 0-.437.123V1H15z"/>
        </g>
    </symbol>

    <symbol viewBox="0 0 512.001 512.001" id="manufacturer">
        <g>
            <path d="M155.43,0c-0.006,0.074-1.13,7.185-6.871,11.928c-4.473,3.696-11.261,5.106-20.175,4.204
			    c-16.247-1.651-30.618,2.221-41.558,11.196C69.088,41.88,63.542,67.39,63.303,69.896l34.094-0.139
			    c0.01-0.115,1.582-11.907,9.286-18.228c4.477-3.674,10.539-5.065,18.537-4.253c17.549,1.786,32.11-1.99,43.276-11.212
			    C184.327,22.986,186.424,2.102,186.611,0H155.43z"/>
            <path d="M263.576,0c-0.006,0.074-1.13,7.185-6.871,11.928c-4.473,3.696-11.263,5.106-20.176,4.204
			    c-16.248-1.651-30.619,2.221-41.558,11.196c-17.738,14.553-23.283,40.062-23.523,42.568l34.095-0.139l-0.014,0.139
			    c0.008-0.073,0.891-7.416,5.17-13.759c3.026-4.484,8.671-10.273,22.667-8.86c17.549,1.786,32.11-1.99,43.276-11.212
			    C292.473,22.986,294.57,2.102,294.757,0H263.576z"/>
            <path d="M231.806,289.4V143.053l-33.844,29.596V86.249h-31.305v113.776l-16.239,14.201v-71.172l-53.333,46.64v-96.14H65.78
			    v123.321h0.223l-28.276,24.727v270.399h81.388h31.305h50.083h31.305h57.061h102.084h83.322V289.4H231.806z M119.114,241.602
			    v239.094H69.031V255.813l50.083-43.798V241.602z M200.501,289.4v191.296h-50.083V255.813l50.083-43.798V289.4z M359.646,480.695
			    h-39.475V441.22h39.475V480.695z M442.968,480.695h-52.018v-70.78H288.867v70.78h-57.061V320.704h211.163V480.695z"/>
            <rect x="289.785" y="351.007" width="100.174" height="31.305"/>
        </g>
    </symbol>
</svg>
